# xmcd
#
# Track frame offsets: 
#        150
#        19920
#        45218
#        66170
#        84680
#        98492
#        119284
#        136525
#        149533
#        167683
#        186502
#        196795
#        211945
#        230889
#        251358
#
# Disc length: 3509 seconds
#
# Revision: 2
# Processed by: cddbd v1.5.2PL0 Copyright (c) Steve Scherf et al.
# Submitted via: ExactAudioCopy v1.0b3
#
DISCID=ca0db30f
DTITLE=Pachamama - The Andean Gods Music
DYEAR=1900
DGENRE=National Folk
TTITLE0=Waynapicchu Eminente
TTITLE1=Cumbres de Nevados Eternos
TTITLE2=Mother Earth
TTITLE3=Condores por la Cima
TTITLE4=Valle de Encanto
TTITLE5=María Amanecer
TTITLE6=De Regreso al Cielo
TTITLE7=Princesa del Sol
TTITLE8=Atahuallpa the Last Inka
TTITLE9=Time to Say Good Bye
TTITLE10=The Mission
TTITLE11=Andes
TTITLE12=Machupicchu Ancestral
TTITLE13=Mohicans
TTITLE14=Entre Montañas Nevados
EXTD=
EXTT0=
EXTT1=
EXTT2=
EXTT3=
EXTT4=
EXTT5=
EXTT6=
EXTT7=
EXTT8=
EXTT9=
EXTT10=
EXTT11=
EXTT12=
EXTT13=
EXTT14=
PLAYORDER=
